<?xml version="1.0" encoding="UTF-8" standalone="no"?>
<!-- Created with Inkscape (http://www.inkscape.org/) -->

<svg
   xmlns:dc="http://purl.org/dc/elements/1.1/"
   xmlns:cc="http://creativecommons.org/ns#"
   xmlns:rdf="http://www.w3.org/1999/02/22-rdf-syntax-ns#"
   xmlns:svg="http://www.w3.org/2000/svg"
   xmlns="http://www.w3.org/2000/svg"
   xmlns:sodipodi="http://sodipodi.sourceforge.net/DTD/sodipodi-0.dtd"
   xmlns:inkscape="http://www.inkscape.org/namespaces/inkscape"
   width="512"
   height="512"
   version="1.1"
   viewBox="0 0 512 512"
   id="svg62"
   sodipodi:docname="sds.svg"
   inkscape:version="0.92.3 (2405546, 2018-03-11)">
  <defs
     id="defs66" />
  <sodipodi:namedview
     pagecolor="#ffffff"
     bordercolor="#666666"
     borderopacity="1"
     objecttolerance="10"
     gridtolerance="10"
     guidetolerance="10"
     inkscape:pageopacity="0"
     inkscape:pageshadow="2"
     inkscape:window-width="1920"
     inkscape:window-height="1020"
     id="namedview64"
     showgrid="false"
     inkscape:zoom="1.6191406"
     inkscape:cx="256"
     inkscape:cy="256"
     inkscape:window-x="0"
     inkscape:window-y="0"
     inkscape:window-maximized="1"
     inkscape:current-layer="svg62" />
  <metadata
     id="metadata58">
    <rdf:RDF>
      <cc:Work
         rdf:about="">
        <dc:format>image/svg+xml</dc:format>
        <dc:type
           rdf:resource="http://purl.org/dc/dcmitype/StillImage" />
        <dc:title />
      </cc:Work>
    </rdf:RDF>
  </metadata>
  <path
     d="m128.26 498.23c-26.866-3.5339-43.111-23.841-41.164-51.457 0.84292-11.957 5.5131-23.672 19.462-48.821 14.064-25.356 18.746-45.262 14.691-62.46-2.9521-12.521-8.3017-18.945-18.165-21.812-10.785-3.1353-26.017-0.26741-31.817 5.9906-9.0975 9.8163-9.2632 17.49-0.58116 26.908l4.0796 4.4258-2.2266 4.8846c-1.7799 3.9047-2.2319 6.7395-2.2533 14.131-0.0147 5.0854-0.30454 9.2479-0.64407 9.25-1.386 8e-3 -15.911-16.134-17.706-19.677-1.064-2.1006-2.4879-7.1306-3.1643-11.178-2.2039-13.187 1.672-25.366 11.425-35.901 13.772-14.876 35.76-18.378 55.168-8.786 15.988 7.9018 23.676 23.61 23.757 48.545 0.0316 9.6866-0.40976 13.077-2.7988 21.5-2.9108 10.263-10.901 27.899-18.991 41.919-6.2383 10.81-9.1894 18.611-10.63 28.101-1.0464 6.8922-0.99209 8.7906 0.38589 13.5 2.1915 7.4896 6.4329 12.245 14.437 16.185 5.9573 2.9328 7.5755 3.2864 14.714 3.2155 17.899-0.17779 28.69-9.067 35.686-29.398 2.5447-7.3951 5.8354-26.016 5.8354-33.021 0-7.6062 2.7169-22.965 5.5382-31.309 5.7882-17.117 19.739-33.198 40.962-47.214 14.895-9.8376 26.5-18.432 26.5-19.626 0-0.49749-1.4362-0.16183-3.1916 0.74591-8.6654 4.4811-22.937 7.4407-39.022 8.0926-15.514 0.62872-25.298-0.75258-32.286-4.558-2.9384-1.6001-2.7329-1.6462 10-2.2417 15.006-0.70177 24.277-2.6724 33.171-7.0508 6.8754-3.3848 10.879-6.8154 6.329-5.423-16.421 5.025-26.065 6.6034-40.5 6.6282-16.516 0.0284-31.464-3.9206-36.678-9.6899-1.6285-1.802-1.1448-1.8564 16.5-1.8564h18.178l12-4.2855c6.6-2.357 12.662-4.695 13.471-5.1956 2.9094-1.8001 0.30379-1.9024-8.0101-0.31435-12.394 2.3672-43.225 2.3749-51.856 0.0128-8.2949-2.2703-14.954-5.9456-19.753-10.903l-3.8519-3.9784 5 0.76494c9.4017 1.4383 42.334 0.83289 51.328-0.94362 14.239-2.8127 13.202-3.5932-4.8277-3.6341-27.76-0.0631-43.826-3.5918-56.973-12.514-6.1406-4.1673-14.944-13.088-13.816-13.999 0.15867-0.12807 4.1135 0.4005 8.7885 1.1746 9.8829 1.6365 46.279 2.885 54.427 1.867 6.913-0.86372 7.315-2.5524 0.60772-2.5524-7.9579 0-26.401-2.8812-35.708-5.5784-13.76-3.9876-22.898-8.9152-30.379-16.381-3.6039-3.5971-7.4962-8.5652-8.6497-11.04s-2.0088-4.596-1.9009-4.7133c0.10798-0.11733 2.4253 0.46053 5.1497 1.2841 12.283 3.7134 32.11 6.5967 49.203 7.1554 12.618 0.41236 17.25 0.25628 17.25-0.5812 0-0.62973-0.70777-1.145-1.5728-1.145-6.2471 0-37.104-9.2486-45.529-13.646-13.356-6.9714-23.088-18.895-24.595-30.134l-0.53866-4.016 8.1999 2.9017c10.732 3.7978 25.108 7.3754 37.536 9.3411 5.5 0.86993 12.438 2.0254 15.417 2.5678 6.6219 1.2055 10.817 1.2764 9.5332 0.16106-0.5225-0.45381-5.45-2.2764-10.95-4.0502-25.938-8.3652-38.77-19.17-45.213-38.067-2.0986-6.1558-3.098-16.058-1.6207-16.058 0.36661 0 5.4291 3.1033 11.25 6.8961 13.75 8.9592 30.245 17.235 42.026 21.085 9.6331 3.148 15.044 2.8131 6.6076-0.40893-15.915-6.0778-33.406-23.879-39.52-40.221-3.6994-9.8875-6.2833-29.871-4.2649-32.984 0.47104-0.72658 4.5027 2.2762 11.235 8.3675 19.728 17.851 44.374 37.225 45.686 35.913 0.32656-0.32656-2.7316-3.9209-6.796-7.9874-15.475-15.483-23.004-35.05-26.131-67.91-0.19628-2.0625-0.0555-3.75 0.31277-3.75 0.93972 0 25.728 25.621 35.818 37.022 11.33 12.801 11.516 12.981 10.808 10.478-0.31101-1.1-1.7033-5.012-3.094-8.6933-2.5788-6.8264-6.4222-20.738-9.2015-33.307-1.5245-6.8938-3.2174-34.5-2.1156-34.5 1.3622 0 14.478 16.448 21.131 26.5 10.665 16.114 19.397 31.954 32.801 59.5 18.688 38.407 24.176 52.695 25.44 66.23 0.5365 5.7452 0.18022 7.6865-3.2775 17.858-3.7924 11.156-3.8785 11.726-3.836 25.412 0.04 12.86 0.2677 14.57 2.7976 21 3.9129 9.9453 9.5059 18.039 18.421 26.657 10.051 9.7157 16.806 14.41 17.634 12.254 0.37508-0.97745-0.5193-2.4855-2.4252-4.0892-4.0789-3.4321-10.401-16.832-13.126-27.822-2.868-11.565-3.1068-27.138-0.55955-36.5 3.1517-11.583 7.9092-20.144 15.864-28.544 4.4606-4.7107 6.8507-7.9356 6.078-8.201-2.8308-0.97224-10.711-6.9299-12.636-9.5532-2.8944-3.9446-1.0537-4.8469 9.1593-4.4901 7.8013 0.27253 10.396-0.38318 6.4999-1.6429-2.7745-0.89716-6.25-6.8387-6.25-10.685 0-2.678 0.81585-4.2827 3.5-6.8843l3.5-3.3923v3.2458c0 5.1083 2.43 8.6971 7.2116 10.651 3.5255 1.4404 6.6902 1.694 17.788 1.4255 26.877-0.65038 38.251-0.25695 42.972 1.4865 7.9799 2.9471 10.782 7.4379 7.9474 12.735-0.59456 1.111-0.92647 2.1744-0.73757 2.3634 0.18889 0.18889 3.7128-0.29912 7.831-1.0845 14.249-2.7173 16.032-1.9443 16.797 7.2826l0.46371 5.5917-2.359-1.6523c-3.3436-2.3419-4.2997-2.1708-15.442 2.7631-15.4 6.8189-28.65 14.141-32.181 17.785-2.9946 3.0896-6.2908 10.175-6.2908 13.522 0 4.7566 3.4894 12.606 7.6718 17.258 3.8731 4.3078 7.1474 6.3414 21.871 13.583 15.634 7.6897 17.874 9.1199 23.06 14.721 5.8975 6.37 10.033 14.072 12.744 23.732 5.2043 18.548 1.3925 44.395-8.7514 59.343-5.9301 8.7385-5.4348 6.7024-13.171 54.14-3.491 21.408-4.1909 37.343-1.9767 45.01 3.5713 12.366 21.318 44.843 26.631 48.736 4.3969 3.2213 10.179 3.9696 17.519 2.2672 10.888-2.5251 16.87-1.4776 18.034 3.1581 0.394 1.5698 1.3132 2.3286 2.821 2.3286 3.0614 0 5.5466 3.0268 5.5466 6.7554v3.0979l-26.25 0.0186c-14.438 0.0102-33.622 0.0862-42.632 0.16888-12.738 0.11685-16.566-0.14771-17.21-1.1894-1.0811-1.7493 1.2468-5.2642 3.7369-5.6422 1.0537-0.15993 2.3521-1.26 2.8854-2.4445 1.3675-3.0376 5.8658-3.9512 13.661-2.7747 3.6804 0.55548 7.1679 1.01 7.75 1.01 2.4757 0 0.5244-3.0836-7.9101-12.5-4.9265-5.5-11.318-13.972-14.203-18.826-4.8065-8.0869-5.737-9.0694-11.117-11.739-6.9693-3.4578-10.375-5.7432-17.626-11.828-8.0029-6.7155-19.26-24.832-23.529-37.866-1.1264-3.4391-2.1258-5.0198-2.8892-4.5697-1.4414 0.84975-22.01 14.485-22.578 14.967-0.22579 0.19176 0.30291 1.1389 1.1749 2.1048 2.6919 2.9817 4.0414 10.759 3.5036 20.191-0.78469 13.762-5.6081 22.6-17.176 31.47-5.4227 4.1582-21.213 12.04-31.034 15.491-3.2679 1.1483-6.3454 2.4915-6.8388 2.9849-1.2271 1.2271 31.726 2.5213 46.22 1.8153 7.2676-0.35401 13.232-1.202 16.06-2.2835 2.475-0.94622 7.1359-1.7636 10.358-1.8163 5.4371-0.089 6.0525 0.13737 8.5728 3.1541 1.4934 1.7875 3.4354 3.25 4.3157 3.25s2.985 1.165 4.6772 2.5889c2.553 2.1482 3.0767 3.3173 3.0767 6.8682v4.2793l-5.8156 1.6318c-7.1106 1.9951-20.18 2.1195-47.894 0.45569-17.494-1.0503-24.496-0.97117-52.122 0.5889-30.808 1.7398-35.519 1.6734-41.385-0.58288-7.9-3.0388-2.0925-13.555 14.915-27.009 2.3091-1.8266 4.2216-3.604 4.25-3.9497 0.0284-0.34577-1.3393-1.2048-3.0394-1.909s-5.7354-2.9895-8.9675-5.0785-6.1094-3.4213-6.3941-2.9607c-0.28466 0.4606-2.1708 3.9288-4.1914 7.7072-10.546 19.719-24.16 30.721-41.937 33.889-8.7276 1.5552-10.172 1.5886-18.919 0.43811z"
     id="path60"
     style="fill:#ff0000" />
</svg>
